<?xml version="1.0" encoding="UTF-8" standalone="no"?>
<svg width="180px" height="35px" viewBox="0 0 180 35" version="1.1" xmlns="http://www.w3.org/2000/svg" xmlns:xlink="http://www.w3.org/1999/xlink" xmlns:sketch="http://www.bohemiancoding.com/sketch/ns">
    <!-- Generator: Sketch 3.2.2 (9983) - http://www.bohemiancoding.com/sketch -->
    <title>Artboard 3</title>
    <desc>Created with Sketch.</desc>
    <defs></defs>
    <g id="Page-2" stroke="none" stroke-width="1" fill="none" fill-rule="evenodd" sketch:type="MSPage">
        <g id="Artboard-3" sketch:type="MSArtboardGroup" fill="#FFFFFF">
            <text id="Sendas-Lecciones" sketch:type="MSTextLayer" font-family="Lato" font-size="18" font-weight="normal">
                <tspan x="37" y="24">Sendas Lecciones</tspan>
            </text>
            <path d="M13.7697213,19.7735347 C14.7034981,21.0272622 14.0417771,23.5445187 14.4773631,23.5445186 L20.5041046,23.5445186 C21.0057859,23.5445186 20.2303885,21.2068341 21.1416416,19.7735347 C22.5,17.6369889 25,15.4346835 25,12.2980612 C25,8.07139201 21.6421358,4.645 17.5,4.645 C13.3578642,4.645 10,8.07139201 10,12.2980612 C10,15.4273574 12.231901,17.7087934 13.7697213,19.7735347 Z M14.6753013,19.3524047 C15.4845746,20.4705941 15.2316399,22.521736 15.2316399,22.521736 L19.7241011,22.521736 C19.7241011,22.521736 19.4495202,20.6307529 20.2392729,19.3524047 C21.4165168,17.4468369 24.0258644,15.0924572 24.0258644,12.2949292 C24.0258644,8.52519718 21.0898511,5.66540816 17.5,5.66540816 C13.9101489,5.66540816 10.965987,8.52519718 10.965987,12.2949292 C10.965987,15.085923 13.3425238,17.5108787 14.6753013,19.3524047 Z M15.5162555,27.0939796 C15.2311355,27.0939796 15,27.3306465 15,27.6041837 C15,27.8859616 15.2278322,28.1143878 15.5162555,28.1143878 L19.4837445,28.1143878 C19.7688645,28.1143878 20,27.8777208 20,27.6041837 C20,27.3224057 19.7721678,27.0939796 19.4837445,27.0939796 L15.5162555,27.0939796 Z M14.5034227,25.5633673 C14.22539,25.5633673 14,25.8000343 14,26.0735714 C14,26.3553494 14.2329025,26.5837755 14.5034227,26.5837755 L20.4965773,26.5837755 C20.77461,26.5837755 21,26.3471086 21,26.0735714 C21,25.7917935 20.7670975,25.5633673 20.4965773,25.5633673 L14.5034227,25.5633673 Z M14.5034227,24.0327551 C14.22539,24.0327551 14,24.269422 14,24.5429592 C14,24.8247371 14.2329025,25.0531633 14.5034227,25.0531633 L20.4965773,25.0531633 C20.77461,25.0531633 21,24.8164963 21,24.5429592 C21,24.2611813 20.7670975,24.0327551 20.4965773,24.0327551 L14.5034227,24.0327551 Z M16.5,28.1143878 L16.5,28.8796939 C16.5,29.3023608 16.8483734,29.645 17.2675323,29.645 L17.7324677,29.645 C18.1563641,29.645 18.5,29.3053075 18.5,28.8796939 L18.5,28.1143878 L16.5,28.1143878 Z" id="bulb-L" sketch:type="MSShapeGroup"></path>
        </g>
    </g>
</svg>